<?xml version="1.0" standalone="no"?>
<!DOCTYPE svg PUBLIC "-//W3C//DTD SVG 20010904//EN"
 "http://www.w3.org/TR/2001/REC-SVG-20010904/DTD/svg10.dtd">
<svg version="1.0" xmlns="http://www.w3.org/2000/svg"
 width="500.000000pt" height="500.000000pt" viewBox="0 0 500.000000 500.000000"
 preserveAspectRatio="xMidYMid meet">
<metadata>
Created by potrace 1.11, written by Peter Selinger 2001-2013
</metadata>
<g transform="translate(0.000000,500.000000) scale(0.100000,-0.100000)"
fill="#000000" stroke="none">
<path d="M0 2500 l0 -2500 2500 0 2500 0 0 2500 0 2500 -2500 0 -2500 0 0
-2500z m1985 1859 c109 -41 180 -117 229 -246 94 -250 22 -627 -188 -978 -86
-144 -127 -198 -240 -310 -109 -108 -128 -121 -317 -218 -69 -35 -138 -72
-154 -83 -21 -14 -47 -19 -104 -19 -103 0 -167 24 -236 87 -85 78 -122 151
-151 298 -18 95 -18 157 1 275 39 239 136 474 288 700 72 105 273 312 364 373
189 127 374 171 508 121z m1230 -77 c77 -26 195 -98 293 -177 345 -281 597
-856 528 -1205 -41 -203 -142 -322 -301 -351 -131 -24 -313 46 -491 189 -272
218 -483 583 -544 939 -24 138 -25 174 -5 278 30 153 105 269 210 320 93 46
188 48 310 7z m-381 -1712 c69 -34 161 -87 203 -118 111 -82 122 -88 293 -173
248 -122 341 -142 665 -143 l160 -1 113 69 c127 78 133 79 185 6 42 -59 54
-139 38 -253 -16 -110 -85 -313 -135 -396 -20 -32 -36 -62 -36 -66 0 -4 -34
-46 -76 -92 -80 -88 -165 -154 -249 -193 -27 -13 -95 -48 -150 -78 -183 -98
-242 -117 -495 -157 -52 -8 -158 -26 -235 -40 -264 -47 -272 -48 -615 -39
-179 4 -372 8 -430 9 -71 1 -134 8 -195 24 -127 31 -244 59 -284 66 -40 8
-295 112 -380 155 -34 17 -103 65 -154 108 -50 43 -114 92 -142 109 -59 38
-249 227 -299 298 -98 140 -166 337 -166 482 0 105 83 228 179 265 l41 16 39
-49 c42 -53 128 -127 178 -152 19 -10 56 -17 92 -17 33 0 71 -5 84 -11 37 -17
187 21 289 72 46 23 131 77 190 120 208 153 413 231 646 245 48 3 132 9 187
12 58 4 149 2 216 -5 112 -11 122 -14 243 -73z"/>
<path d="M501 2107 c-8 -10 -9 -32 -2 -79 34 -239 248 -469 589 -634 525 -254
1262 -352 1957 -260 526 70 979 255 1205 493 87 91 141 176 170 269 25 83 27
172 4 181 -32 12 -49 -11 -55 -78 -26 -280 -341 -536 -859 -697 -379 -118
-929 -162 -1391 -112 -183 20 -206 24 -389 62 -659 137 -1105 440 -1164 791
-10 60 -16 73 -33 75 -11 2 -25 -3 -32 -11z"/>
</g>
</svg>
